<svg
 width="1438" 
 viewBox="0 0 1164 174" fill="none" xmlns="http://www.w3.org/2000/svg" xmlns:xlink="http://www.w3.org/1999/xlink">
	<deft>
		<filter id="goo">
			<feGaussianBlur in="SourceGraphic" stdDeviation="15" result="blur"/>
			<feColorMatrix in="blur" mode="matrix" values="1 0 0 0 0  0 1 0 0 0  0 0 1 0 0  0 0 0 17 -7" result="goo"/>
		</filter>
	
	</deft>

<path id="path1" d="M13.5 113.5L0 156.5C0 156.5 1427.5 157 1436.5 157C1445.5 157 1390.5 61.5 1377.5 70.5C1364.5 79.4999 1350 57.5 1329 
61.5C1308 65.5 1293.5 70.5 1270.5 70.5C1247.5 70.5 1234 84.4999 1177 105C1120 125.5 1138.48 101.326 1112 93.9999C1112 93.9999 1061 
70.5 1018 65.5C975 60.5 904 29 885.5 22.5C867 16 840.5 36.5 840.5 36.5C840.5 36.5 825.5 13.5 784.5 22.5C743.5 31.5 731.5 36 679
 70.5C626.5 105 643 47.5 555 57C467 66.5 488 57 445 47.5C402 38 384.5 77 335 70.5C285.5 64 270.5 22.5 231 36.5C191.5 50.5 202 51.5 169 65.5C136 
 79.5 142 36.5 115.5 36.5C89 36.5 49.3728 64.4681 43 70.5C36.6272 76.5318 19.0918 100.351 13.5 113.5Z" fill="transparent"/>

<path id="path2" d="M13.5 113.5L0 156.5C0 156.5 1427.5 157 1436.5 157C1445.5 157 1377.5 105 1377.5 70.5C1377.5 36 1355 12 1334 16C1313 20 1293.5 94 1270.5 94C1247.5 
94 1234 84.5 1177 105C1120 125.5 1138.48 101.326 1112 94C1112 94 1073 41.5 1030 36.5C987 31.5 924.5 63.5 906 57C887.5 50.5 837.5 36.5 837.5 36.5C837.5 36.5 807 -7.5 766
 1.5C725 10.5 731.5 36 679 70.5C626.5 105 643 47.5 555 57C467 66.5 497.5 71 454.5 61.5C411.5 52 384.5 111.5 335 105C285.5 98.5 277 1.99997 237.5 16C198 30 201.5 22.5 168.5 36.5C135.5 50.5 
 138 113.5 111.5 113.5C85 113.5 68.5 89 49.5 94C30.5 99 19.0918 100.351 13.5 113.5Z" fill="transparent"/>





<g filter="url(#goo)">
<circle r='20' fill="yellow">
	<animateMotion dur="20s" repeatCount="indefinite">
	<mpath xlink:href="#path"/>
	</animateMotion>
</circle>
<circle r='10' fill="yellow">
	<animateMotion dur="17s" repeatCount="indefinite">
	<mpath xlink:href="#path1"/>
	</animateMotion>
</circle>
<circle r='30' fill="yellow">
	<animateMotion dur="7s" repeatCount="indefinite">
	<mpath xlink:href="#path2"/>
	</animateMotion>
</circle>

<circle r='10' fill="yellow">
	<animateMotion dur="27s" repeatCount="indefinite">
	<mpath xlink:href="#path2"/>
	</animateMotion>
</circle>

<path id="path" d="M13.5 113.5L0 156.5C0 156.5 1427.5 157 1436.5 157C1445.5 157 1399 113.5 1386.5 105C1374 96.4999 1350.5 76.5 1329.5 80.5C1308.5 84.5 1288.5 80.5 1265.5 80.5C1242.5 80.5 1234 84.4999 
1177 105C1120 125.5 1138.48 101.326 1112 93.9999C1112 93.9999 1061 70.4999 1018 65.4999C975 60.4999 966 65.4999 929 65.4999C892 65.4999 865.5 70.4999 865.5 70.4999C865.5 70.4999 844.5 71.5 803.5 
80.5C762.5 89.5 731.5 35.9999 679 70.4999C626.5 105 674.5 84.4999 586.5 93.9999C498.5 103.5 507 85 445 47.4999C383 9.9999 390.5 100.5 341 93.9999C291.5 87.4999 270.5 22.4999 231 36.4999C191.5 50.5 213 
22.4999 180 36.4999C147 50.4999 142 36.4999 115.5 36.4999C89 36.4999 77.8728 87.968 71.5 93.9999C65.1272 100.032 19.0918 100.351 13.5 113.5Z" fill="#D5D6CB">

<animate
attributeName="d"
dur="60s"
repeatCount="indefinite"
values="
M13.5 113.5L0 156.5C0 156.5 1427.5 157 1436.5 157C1445.5 157 1390.5 61.5 1377.5 70.5C1364.5 79.4999 1350 57.5 1329 
61.5C1308 65.5 1293.5 70.5 1270.5 70.5C1247.5 70.5 1234 84.4999 1177 105C1120 125.5 1138.48 101.326 1112 93.9999C1112 93.9999 1061 
70.5 1018 65.5C975 60.5 904 29 885.5 22.5C867 16 840.5 36.5 840.5 36.5C840.5 36.5 825.5 13.5 784.5 22.5C743.5 31.5 731.5 36 679
 70.5C626.5 105 643 47.5 555 57C467 66.5 488 57 445 47.5C402 38 384.5 77 335 70.5C285.5 64 270.5 22.5 231 36.5C191.5 50.5 202 51.5 169 65.5C136 
 79.5 142 36.5 115.5 36.5C89 36.5 49.3728 64.4681 43 70.5C36.6272 76.5318 19.0918 100.351 13.5 113.5Z;


M13.5 113.5L0 156.5C0 156.5 1427.5 157 1436.5 157C1445.5 157 1377.5 105 1377.5 70.5C1377.5 36 1355 12 1334 16C1313 20 1293.5 94 1270.5 94C1247.5 
94 1234 84.5 1177 105C1120 125.5 1138.48 101.326 1112 94C1112 94 1073 41.5 1030 36.5C987 31.5 924.5 63.5 906 57C887.5 50.5 837.5 36.5 837.5 36.5C837.5 36.5 807 -7.5 766
 1.5C725 10.5 731.5 36 679 70.5C626.5 105 643 47.5 555 57C467 66.5 497.5 71 454.5 61.5C411.5 52 384.5 111.5 335 105C285.5 98.5 277 1.99997 237.5 16C198 30 201.5 22.5 168.5 36.5C135.5 50.5 
 138 113.5 111.5 113.5C85 113.5 68.5 89 49.5 94C30.5 99 19.0918 100.351 13.5 113.5Z;

M13.5 113.5L0 156.5C0 156.5 1427.5 157 1436.5 157C1445.5 157 1399 113.5 1386.5 105C1374 96.4999 1350.5 76.5 1329.5 80.5C1308.5 84.5 1288.5 80.5 1265.5 80.5C1242.5 80.5 1234 84.4999 
1177 105C1120 125.5 1138.48 101.326 1112 93.9999C1112 93.9999 1061 70.4999 1018 65.4999C975 60.4999 966 65.4999 929 65.4999C892 65.4999 865.5 70.4999 865.5 70.4999C865.5 70.4999 844.5 71.5 803.5 
80.5C762.5 89.5 731.5 35.9999 679 70.4999C626.5 105 674.5 84.4999 586.5 93.9999C498.5 103.5 507 85 445 47.4999C383 9.9999 390.5 100.5 341 93.9999C291.5 87.4999 270.5 22.4999 231 36.4999C191.5 50.5 213 
22.4999 180 36.4999C147 50.4999 142 36.4999 115.5 36.4999C89 36.4999 77.8728 87.968 71.5 93.9999C65.1272 100.032 19.0918 100.351 13.5 113.5Z;
"
/>	

</path>
</g>

</svg>
